# xmcd CD database file
#
# Track frame offsets:
#	150
#	13389
#	34702
#	51392
#	67169
#	89478
#
# Disc length: 1364 seconds
#
# Revision: 0
# Processed by: cddbd v1.5.2PL0 Copyright (c) Steve Scherf et al.
# Submitted via: CDex 1.70beta2
#
DISCID=55055206
DTITLE=Country ladies - Dej se vést tou písní
DYEAR=1900
DGENRE=Country
TTITLE0=Je tak si jít
TTITLE1=Madelén
TTITLE2=Zasněná
TTITLE3=Dej se vést tou písní
TTITLE4=Divnej sen
TTITLE5=Ten kluk
EXTD=
EXTT0=
EXTT1=
EXTT2=
EXTT3=
EXTT4=
EXTT5=
PLAYORDER=
